<svg width="28" height="28" viewBox="0 0 28 28" fill="none" xmlns="http://www.w3.org/2000/svg">
<g clip-path="url(#clip0_8673_4070)">
<path d="M3.17684 10.5058H0.319669C0.158086 10.5058 0.0268355 10.6032 0.0262522 10.7987L2.21078e-06 17.8028C-0.000581123 17.9777 0.114336 18.0653 0.271252 18.0653C0.700002 18.0653 1.05 18.0653 1.47875 18.0653C1.6275 18.0653 1.75 17.9923 1.75 17.8465C1.75 17.1984 1.75 16.3981 1.75 15.75L2.99017 15.7553C3.80625 15.7016 4.35225 15.3224 4.57975 14.5583C4.648 14.329 4.66142 14.1307 4.66142 13.895L4.72559 12.2255C4.66609 11.0518 4.05359 10.6056 3.17684 10.5058ZM2.91375 13.6879C2.91375 13.8594 2.77317 14 2.60225 14H1.75V12.25H2.60225C2.77317 12.25 2.91375 12.39 2.91375 12.5621V13.6879ZM8.1305 10.5H6.13375C5.98209 10.5 5.852 10.5467 5.852 10.7047C5.852 11.1166 5.852 11.5768 5.852 11.9887C5.86834 12.1602 5.98675 12.25 6.15534 12.25H7.82075C8.16725 12.25 8.13109 12.817 7.82075 12.8333H6.90667C5.89225 12.8333 5.25 13.7445 5.25 14.6632C5.25 14.9082 5.25292 15.4834 5.25 15.75C5.24534 16.1298 5.24184 16.5148 5.31534 16.8578C5.446 17.4644 5.97042 18.0833 6.76492 18.0833H9.23125C9.54684 18.0833 9.9155 17.8068 9.9155 17.4411V12.6146C9.93184 11.3418 9.2995 10.5683 8.1305 10.5ZM8.16667 16.0708C8.16667 16.2155 8.04884 16.3333 7.90534 16.3333H7.26075C7.11725 16.3333 7 16.2155 7 16.0708V14.8453C7 14.7012 7.11725 14.5833 7.26075 14.5833H7.90534C8.04884 14.5833 8.16667 14.7012 8.16667 14.8453V16.0708ZM10.5 10.8465V14.1178C10.5723 15.0512 11.438 15.75 12.3498 15.75H13.1746C13.5228 15.75 13.5018 16.3153 13.1746 16.3153H11.3692C11.1714 16.3153 11.0997 16.4185 11.0997 16.5929V17.8483C11.0997 17.9801 11.2064 18.0793 11.3458 18.0793H13.0719C14.4813 18.0793 15.1673 17.4032 15.1667 15.8877V10.731C15.1667 10.57 15.0646 10.5076 14.9672 10.5076H13.6243C13.4937 10.5076 13.4173 10.6493 13.4173 10.7537V13.7976C13.4173 13.9137 13.3525 13.9819 13.2481 13.9819H12.4892C12.3352 13.9819 12.2506 13.8985 12.2506 13.7509V10.8004C12.25 10.6272 12.18 10.5 11.9887 10.5C11.5348 10.5 11.1475 10.5 10.6937 10.5C10.5391 10.5 10.5 10.6534 10.5 10.8465Z" fill="#0D47A1"/>
<path d="M15.7722 11.9986V10.7515C15.7722 10.6132 15.8853 10.5001 16.023 10.5001H16.3333C17.1313 10.3338 17.4131 10.1384 17.9013 9.61222C18.2012 9.2873 18.4648 9.20155 18.6585 9.5463L18.6667 10.5001H19.5819C19.7207 10.5001 19.8333 10.6132 19.8333 10.7515V11.9986C19.8333 12.1363 19.7202 12.2501 19.5819 12.2501H18.6667V17.832C18.6667 17.9708 18.5535 18.0834 18.4158 18.0834H17.1675C17.0292 18.0834 16.9167 17.9708 16.9167 17.832V12.2501H16.0236C15.8865 12.2501 15.7722 12.1369 15.7722 11.9986ZM25.0781 17.7713C25.0781 17.9428 24.9357 18.0834 24.7637 18.0834H23.6495C23.4762 18.0834 23.3345 17.9428 23.3345 17.7713V13.9079V12.8165C23.3345 12.0675 22.1667 12.0675 22.1667 12.8165V17.7713C22.1667 17.9428 22.0255 18.0834 21.8522 18.0834H20.7317C20.5584 18.0834 20.4167 17.9428 20.4167 17.7713V10.8133C20.4167 10.6406 20.5584 10.5001 20.7317 10.5001H21.8843C22.0576 10.5001 22.1987 10.6406 22.1987 10.8133V10.9836C22.9687 10.2451 24.1249 10.4161 24.7747 11.1166C25.998 9.71372 28.0939 10.9638 27.9965 12.5021C27.9965 14.2031 27.9813 16.0563 27.9813 17.7713C27.9813 17.9428 27.839 18.0834 27.6675 18.0834H26.5644C26.3912 18.0834 26.25 17.9428 26.25 17.7713C26.25 16.1461 26.25 14.4457 26.25 12.848C26.25 12.0856 25.0833 12.0488 25.0833 12.848V17.7713H25.0781Z" fill="#00ADEE"/>
</g>
<defs>
<clipPath id="clip0_8673_4070">
<rect width="28" height="28" fill="white"/>
</clipPath>
</defs>
</svg>
