<svg width="28" height="28" viewBox="0 0 28 28" fill="none" xmlns="http://www.w3.org/2000/svg">
<path d="M24.5 21.5833C24.5 23.1945 23.1945 24.5 21.5833 24.5H6.41667C4.80608 24.5 3.5 23.1945 3.5 21.5833V6.41667C3.5 4.8055 4.80608 3.5 6.41667 3.5H21.5833C23.1945 3.5 24.5 4.8055 24.5 6.41667V21.5833Z" fill="#CFD8DC"/>
<path d="M21.5833 3.5H15.4367L7.67316 24.5H21.5833C23.1945 24.5 24.5 23.1945 24.5 21.5833V6.41667C24.5 4.8055 23.1945 3.5 21.5833 3.5Z" fill="#536DFE"/>
<path d="M14.1983 13.9235V15.8864H13.5759V11.0389H15.2273C15.6258 11.0307 16.0108 11.1818 16.2966 11.4583C16.5859 11.7191 16.7493 12.0918 16.7434 12.4815C16.7516 12.8729 16.5888 13.2491 16.2966 13.5105C16.0078 13.7858 15.6514 13.9235 15.2273 13.9229L14.1983 13.9235ZM14.1983 11.6356V13.3279H15.2425C15.4741 13.3349 15.6975 13.2439 15.8585 13.0771C16.1858 12.7591 16.1928 12.2359 15.8748 11.9086C15.8696 11.9028 15.8638 11.8976 15.8585 11.8923C15.6993 11.722 15.4753 11.6286 15.2425 11.6351L14.1983 11.6356Z" fill="#FAFAFA"/>
<path d="M18.1784 12.4612C18.6386 12.4612 19.0021 12.5843 19.2681 12.8304C19.5341 13.0766 19.6676 13.4138 19.6671 13.8419V15.8859H19.0715V15.4257H19.0446C18.7868 15.8048 18.4438 15.9944 18.0156 15.9944C17.6505 15.9944 17.3448 15.8859 17.0986 15.6695C16.8595 15.4683 16.7241 15.1696 16.7294 14.8575C16.7294 14.5145 16.8589 14.2415 17.1185 14.0385C17.3781 13.8361 17.724 13.734 18.1574 13.734C18.5272 13.734 18.8317 13.8017 19.0709 13.937V13.7947C19.0721 13.5818 18.9781 13.3793 18.8136 13.2434C18.6491 13.0947 18.4345 13.0136 18.2128 13.0165C17.8651 13.0165 17.5898 13.1635 17.3868 13.4569L16.8385 13.1116C17.1406 12.6782 17.5869 12.4612 18.1784 12.4612ZM17.3728 14.8709C17.3722 15.0319 17.4486 15.183 17.5793 15.2769C17.717 15.3854 17.8879 15.4426 18.0629 15.4391C18.3254 15.4385 18.5774 15.3341 18.7635 15.148C18.97 14.9538 19.0726 14.7263 19.0726 14.4643C18.8784 14.3098 18.6077 14.2322 18.2606 14.2322C18.0075 14.2322 17.7969 14.2934 17.6277 14.4153C17.4574 14.5396 17.3728 14.6901 17.3728 14.8709Z" fill="#FAFAFA"/>
<path d="M23.086 12.5696L21.007 17.3482H20.3641L21.1359 15.6764L19.7686 12.5702H20.4452L21.4334 14.9525H21.4468L22.4081 12.5702L23.086 12.5696Z" fill="#FAFAFA"/>
<path d="M10.0701 13.5C10.0701 13.3104 10.0543 13.1208 10.0222 12.9336H7.39606V14.0063H8.89989C8.83747 14.3523 8.63681 14.6579 8.34397 14.8528V15.5487H9.24172C9.76731 15.0639 10.0701 14.3476 10.0701 13.5Z" fill="#4285F4"/>
<path d="M7.39606 16.2213C8.14739 16.2213 8.78031 15.9745 9.24173 15.5493L8.34398 14.8534C8.09431 15.0225 7.77231 15.1194 7.39606 15.1194C6.66981 15.1194 6.05323 14.63 5.83273 13.9702H4.90814V14.6877C5.38064 15.6275 6.34373 16.2213 7.39606 16.2213Z" fill="#34A853"/>
<path d="M5.83278 13.9698C5.71611 13.6239 5.71611 13.2494 5.83278 12.904V12.1865H4.9082C4.5127 12.9734 4.5127 13.9004 4.9082 14.6873L5.83278 13.9698Z" fill="#FBBC04"/>
<path d="M7.39609 11.7542C7.79334 11.7478 8.17718 11.8977 8.46418 12.1719L9.25868 11.3774C8.75468 10.9043 8.08676 10.6441 7.39551 10.6523C6.34259 10.6523 5.38009 11.2461 4.90759 12.1865L5.83218 12.904C6.05326 12.2442 6.66984 11.7542 7.39609 11.7542Z" fill="#EA4335"/>
</svg>
