<svg width="26" height="17" viewBox="0 0 26 17" fill="none" xmlns="http://www.w3.org/2000/svg">
<g clip-path="url(#clip0_230_5)">
<path fill-rule="evenodd" clip-rule="evenodd" d="M6.92318 7.35685L5.84831 9.75969C8.58203 11.7366 12.6551 12.9381 15.4904 11.4548C13.0656 16.0359 7.45003 16.0338 3.70492 14.5378L2.60889 17L0 10.0415L6.92318 7.35685ZM10.3678 0L26.0085 3.72716L23.7572 12.7134L8.11654 8.98841L10.3678 0ZM17.7311 3.71445C18.2531 3.84519 18.7246 4.12796 19.0861 4.52701C19.4476 4.92606 19.6829 5.42348 19.7622 5.95639C19.8414 6.48931 19.7612 7.0338 19.5315 7.52105C19.3019 8.0083 18.9331 8.41642 18.4719 8.69385C18.0107 8.97128 17.4777 9.10555 16.9403 9.07969C16.4028 9.05384 15.8851 8.86901 15.4526 8.54858C15.0201 8.22816 14.6921 7.7865 14.5101 7.27945C14.3282 6.7724 14.3004 6.22271 14.4303 5.69986C14.5167 5.35235 14.6706 5.02528 14.8833 4.73738C15.096 4.44948 15.3632 4.20638 15.6698 4.02198C15.9763 3.83759 16.3162 3.71552 16.6699 3.66275C17.0236 3.60998 17.3842 3.62754 17.7311 3.71445ZM12.9069 2.08924L22.7606 4.36919C22.6736 4.72152 22.7296 5.09402 22.9164 5.40504C23.1032 5.71605 23.4056 5.94018 23.7572 6.02829L22.8727 9.58382C22.5212 9.49602 22.1492 9.5516 21.8385 9.73834C21.5278 9.92508 21.3039 10.2277 21.216 10.5797L11.356 8.29976C11.4433 7.9486 11.3884 7.57712 11.2033 7.26632C11.0182 6.95552 10.7179 6.73062 10.3678 6.64066L11.2523 3.08725C11.6038 3.17376 11.9752 3.11733 12.2853 2.9303C12.5954 2.74327 12.8189 2.44087 12.9069 2.08924Z" fill="#737373"/>
</g>
<defs>
<clipPath id="clip0_230_5">
<rect width="26" height="17" fill="white"/>
</clipPath>
</defs>
</svg>
