<svg width="113" height="113" viewBox="0 0 113 113" fill="none" xmlns="http://www.w3.org/2000/svg">
<path d="M31.4874 24.6687L78.4793 22.9647L94.6213 67.1301L57.6056 96.1299L18.5867 69.8873L31.4874 24.6687Z" fill="#008000"/>
<path d="M18.1229 43.7317L56.2108 16.1554L94.2073 43.8577L79.6024 88.5549L32.5797 88.477L18.1229 43.7317Z" fill="#CCF9CC"/>
<path d="M29.9983 44.3988V47.6258H33.9393V48.9488H29.9983V53.1558H28.3533V43.0758H34.6393V44.3988H29.9983ZM41.5034 46.0158V53.1558H40.5934C40.3927 53.1558 40.2644 53.0601 40.2084 52.8688L40.0964 52.2038C39.9471 52.3624 39.7884 52.5071 39.6204 52.6378C39.4571 52.7684 39.2821 52.8804 39.0954 52.9738C38.9087 53.0671 38.7081 53.1394 38.4934 53.1908C38.2834 53.2421 38.0571 53.2678 37.8144 53.2678C37.4224 53.2678 37.0771 53.2024 36.7784 53.0718C36.4797 52.9411 36.2277 52.7568 36.0224 52.5188C35.8217 52.2808 35.6701 51.9961 35.5674 51.6648C35.4647 51.3288 35.4134 50.9601 35.4134 50.5588V46.0158H36.9184V50.5588C36.9184 51.0394 37.0281 51.4128 37.2474 51.6788C37.4714 51.9448 37.8097 52.0778 38.2624 52.0778C38.5937 52.0778 38.9017 52.0031 39.1864 51.8538C39.4757 51.6998 39.7464 51.4898 39.9984 51.2238V46.0158H41.5034ZM44.8641 42.7958V53.1558H43.3591V42.7958H44.8641ZM48.2547 42.7958V53.1558H46.7497V42.7958H48.2547ZM56.4473 46.0158L52.5133 55.1858C52.462 55.2931 52.399 55.3771 52.3243 55.4378C52.2543 55.4984 52.1446 55.5288 51.9953 55.5288H50.8823L52.1983 52.6728L49.2863 46.0158H50.5953C50.7213 46.0158 50.817 46.0461 50.8823 46.1068C50.9523 46.1628 51.0036 46.2304 51.0363 46.3098L52.7373 50.3628C52.7793 50.4794 52.8166 50.5961 52.8493 50.7128C52.8866 50.8248 52.9216 50.9414 52.9543 51.0628C52.9916 50.9414 53.029 50.8224 53.0663 50.7058C53.1036 50.5891 53.1456 50.4724 53.1923 50.3558L54.8233 46.3098C54.856 46.2258 54.9096 46.1558 54.9843 46.0998C55.0636 46.0438 55.15 46.0158 55.2433 46.0158H56.4473ZM63.9873 48.2138C64.3513 48.2138 64.671 48.1671 64.9463 48.0738C65.2263 47.9804 65.4573 47.8498 65.6393 47.6818C65.826 47.5091 65.966 47.3014 66.0593 47.0588C66.1526 46.8161 66.1993 46.5454 66.1993 46.2468C66.1993 45.9528 66.1526 45.6891 66.0593 45.4558C65.9706 45.2224 65.8353 45.0241 65.6533 44.8608C65.4713 44.6974 65.2403 44.5738 64.9603 44.4898C64.685 44.4011 64.3606 44.3568 63.9873 44.3568H62.4893V48.2138H63.9873ZM63.9873 43.0758C64.6453 43.0758 65.2146 43.1528 65.6953 43.3068C66.1806 43.4608 66.5796 43.6778 66.8923 43.9578C67.2096 44.2331 67.4453 44.5668 67.5993 44.9588C67.7533 45.3461 67.8303 45.7754 67.8303 46.2468C67.8303 46.7274 67.7486 47.1684 67.5853 47.5698C67.422 47.9664 67.1793 48.3094 66.8573 48.5988C66.5353 48.8834 66.134 49.1074 65.6533 49.2708C65.1773 49.4294 64.622 49.5088 63.9873 49.5088H62.4893V53.1558H60.8513V43.0758H63.9873ZM72.7125 50.0338C72.1758 50.0524 71.7231 50.0968 71.3545 50.1668C70.9858 50.2321 70.6871 50.3184 70.4585 50.4258C70.2298 50.5284 70.0641 50.6521 69.9615 50.7968C69.8635 50.9414 69.8145 51.1001 69.8145 51.2728C69.8145 51.4408 69.8401 51.5854 69.8915 51.7068C69.9475 51.8234 70.0221 51.9214 70.1155 52.0008C70.2135 52.0754 70.3255 52.1314 70.4515 52.1688C70.5821 52.2014 70.7245 52.2178 70.8785 52.2178C71.2705 52.2178 71.6065 52.1454 71.8865 52.0008C72.1711 51.8514 72.4465 51.6368 72.7125 51.3568V50.0338ZM68.7225 47.0098C69.5298 46.2584 70.4911 45.8828 71.6065 45.8828C72.0171 45.8828 72.3811 45.9504 72.6985 46.0858C73.0205 46.2164 73.2888 46.4031 73.5035 46.6458C73.7228 46.8884 73.8885 47.1778 74.0005 47.5138C74.1171 47.8451 74.1755 48.2138 74.1755 48.6198V53.1558H73.5035C73.3588 53.1558 73.2491 53.1348 73.1745 53.0928C73.0998 53.0461 73.0368 52.9551 72.9855 52.8198L72.8385 52.2388C72.6565 52.4021 72.4768 52.5491 72.2995 52.6798C72.1221 52.8058 71.9378 52.9131 71.7465 53.0018C71.5598 53.0904 71.3568 53.1558 71.1375 53.1978C70.9228 53.2444 70.6848 53.2678 70.4235 53.2678C70.1341 53.2678 69.8635 53.2281 69.6115 53.1488C69.3641 53.0694 69.1495 52.9504 68.9675 52.7918C68.7855 52.6284 68.6408 52.4278 68.5335 52.1898C68.4308 51.9518 68.3795 51.6718 68.3795 51.3498C68.3795 51.0744 68.4518 50.8061 68.5965 50.5448C68.7458 50.2834 68.9885 50.0501 69.3245 49.8448C69.6651 49.6348 70.1108 49.4621 70.6615 49.3268C71.2168 49.1914 71.9005 49.1144 72.7125 49.0958V48.6198C72.7125 48.1064 72.6028 47.7238 72.3835 47.4718C72.1641 47.2198 71.8421 47.0938 71.4175 47.0938C71.1281 47.0938 70.8855 47.1311 70.6895 47.2058C70.4935 47.2758 70.3231 47.3528 70.1785 47.4368C70.0338 47.5208 69.9055 47.6001 69.7935 47.6748C69.6815 47.7448 69.5625 47.7798 69.4365 47.7798C69.3338 47.7798 69.2451 47.7541 69.1705 47.7028C69.1005 47.6468 69.0421 47.5791 68.9955 47.4998L68.7225 47.0098ZM77.5065 46.0158V53.1558H76.0015V46.0158H77.5065ZM77.7585 43.8598C77.7585 43.9951 77.7305 44.1234 77.6745 44.2448C77.6232 44.3661 77.5508 44.4734 77.4575 44.5668C77.3642 44.6554 77.2545 44.7278 77.1285 44.7838C77.0072 44.8351 76.8765 44.8608 76.7365 44.8608C76.6012 44.8608 76.4728 44.8351 76.3515 44.7838C76.2348 44.7278 76.1322 44.6554 76.0435 44.5668C75.9548 44.4734 75.8825 44.3661 75.8265 44.2448C75.7752 44.1234 75.7495 43.9951 75.7495 43.8598C75.7495 43.7198 75.7752 43.5891 75.8265 43.4678C75.8825 43.3464 75.9548 43.2414 76.0435 43.1528C76.1322 43.0594 76.2348 42.9871 76.3515 42.9358C76.4728 42.8798 76.6012 42.8518 76.7365 42.8518C76.8765 42.8518 77.0072 42.8798 77.1285 42.9358C77.2545 42.9871 77.3642 43.0594 77.4575 43.1528C77.5508 43.2414 77.6232 43.3464 77.6745 43.4678C77.7305 43.5891 77.7585 43.7198 77.7585 43.8598ZM83.9545 47.7728C83.7445 47.5021 83.5135 47.3131 83.2615 47.2058C83.0095 47.0984 82.7365 47.0448 82.4425 47.0448C81.8545 47.0448 81.3948 47.2618 81.0635 47.6958C80.7321 48.1251 80.5665 48.7621 80.5665 49.6068C80.5665 50.0454 80.6038 50.4211 80.6785 50.7338C80.7531 51.0418 80.8605 51.2938 81.0005 51.4898C81.1405 51.6858 81.3108 51.8281 81.5115 51.9168C81.7121 52.0054 81.9385 52.0498 82.1905 52.0498C82.5731 52.0498 82.9021 51.9681 83.1775 51.8048C83.4575 51.6368 83.7165 51.4011 83.9545 51.0978V47.7728ZM85.4595 42.7958V53.1558H84.5495C84.3488 53.1558 84.2205 53.0601 84.1645 52.8688L84.0315 52.0918C83.7328 52.4418 83.3921 52.7241 83.0095 52.9388C82.6315 53.1534 82.1905 53.2608 81.6865 53.2608C81.2851 53.2608 80.9211 53.1814 80.5945 53.0228C80.2678 52.8594 79.9878 52.6238 79.7545 52.3158C79.5211 52.0078 79.3391 51.6274 79.2085 51.1748C79.0825 50.7174 79.0195 50.1948 79.0195 49.6068C79.0195 49.0748 79.0895 48.5824 79.2295 48.1298C79.3741 47.6771 79.5795 47.2851 79.8455 46.9538C80.1115 46.6178 80.4335 46.3564 80.8115 46.1698C81.1941 45.9784 81.6211 45.8828 82.0925 45.8828C82.5125 45.8828 82.8695 45.9504 83.1635 46.0858C83.4575 46.2164 83.7211 46.4008 83.9545 46.6388V42.7958H85.4595Z" fill="#121212"/>
<path d="M48 75H51.2V65.4H48V75ZM65.6 66.2C65.6 65.32 64.88 64.6 64 64.6H58.952L59.712 60.944L59.736 60.688C59.736 60.36 59.6 60.056 59.384 59.84L58.536 59L53.272 64.272C52.976 64.56 52.8 64.96 52.8 65.4V73.4C52.8 74.28 53.52 75 54.4 75H61.6C62.264 75 62.832 74.6 63.072 74.024L65.488 68.384C65.56 68.2 65.6 68.008 65.6 67.8V66.2Z" fill="#008000"/>
</svg>
