<svg width="28" height="28" viewBox="0 0 28 28" fill="none" xmlns="http://www.w3.org/2000/svg">
<path d="M24.5 21.5833C24.5 23.1945 23.1945 24.5 21.5833 24.5H6.41667C4.80608 24.5 3.5 23.1945 3.5 21.5833V6.41667C3.5 4.8055 4.80608 3.5 6.41667 3.5H21.5833C23.1945 3.5 24.5 4.8055 24.5 6.41667V21.5833Z" fill="#4527A0"/>
<path d="M18.8224 11.7665C18.8224 11.3692 18.4818 11.0292 18.0851 11.0292H16.7236L13.6028 7.38333C13.3193 7.04266 12.8654 6.9295 12.411 7.04266L11.333 7.38333C11.1627 7.43991 11.1061 7.66683 11.2193 7.78058L14.6236 11.0857H9.4605C9.29017 11.0857 9.177 11.1995 9.177 11.3692V11.9368C9.177 12.3341 9.51767 12.8153 9.91434 12.8153H11.0647V15.3266C11.0647 17.3694 12.0044 18.5606 13.8198 18.5606C14.3873 18.5606 14.6236 18.504 15.1906 18.2771V20.0924C15.1906 20.6028 15.5878 21.0001 16.0983 21.0001H16.5568C16.7271 21.0001 16.8974 20.8297 16.8974 20.6594V12.8153H18.5378C18.7081 12.8153 18.8213 12.7016 18.8213 12.5318V11.7665H18.8224ZM15.1918 16.5743C14.8511 16.7447 14.3973 16.8012 14.0572 16.8012C13.1495 16.8012 12.8339 16.3474 12.8339 15.326V12.8147H15.1923V16.5743H15.1918Z" fill="white"/>
</svg>
