<svg width="48" height="48" viewBox="0 0 48 48" fill="none" xmlns="http://www.w3.org/2000/svg">
<path d="M29.3575 4.59295L38.873 23.5154C39.0865 23.9398 38.9962 24.4538 38.6511 24.7804L18.6485 43.7007C17.8569 44.4497 16.5812 43.682 16.8723 42.6318L27.3594 4.78874C27.6222 3.84047 28.9151 3.71347 29.3575 4.59295Z" fill="url(#paint0_linear_8674_4073)"/>
<path opacity="0.05" d="M25.729 10.6699L18.098 38.2059L31.528 25.5079C32.189 24.8829 32.365 23.8789 31.957 23.0679L25.729 10.6699Z" fill="black"/>
<path opacity="0.07" d="M25.53 11.3879L18.357 37.2729L31.185 25.1439C31.687 24.6689 31.821 23.9079 31.511 23.2909L25.53 11.3879Z" fill="black"/>
<path d="M21.557 4.5929L31.064 23.5149C31.277 23.9389 31.187 24.4529 30.842 24.7799L10.831 43.6999C10.039 44.4489 8.764 43.6809 9.055 42.6299L19.559 4.7879C19.822 3.8399 21.115 3.7139 21.557 4.5929Z" fill="url(#paint1_linear_8674_4073)"/>
<defs>
<linearGradient id="paint0_linear_8674_4073" x1="6.94715" y1="7.12732" x2="17.9359" y2="18.5666" gradientUnits="userSpaceOnUse">
<stop stop-color="#21AD64"/>
<stop offset="1" stop-color="#088242"/>
</linearGradient>
<linearGradient id="paint1_linear_8674_4073" x1="-3.96499" y1="4.6879" x2="30.418" y2="39.0709" gradientUnits="userSpaceOnUse">
<stop stop-color="#FED100"/>
<stop offset="1" stop-color="#E36001"/>
</linearGradient>
</defs>
</svg>
