<svg width="121" height="24" viewBox="0 0 121 24" fill="none" xmlns="http://www.w3.org/2000/svg">
<path d="M1.15089 1.58706C0.671465 0.925939 1.14378 0 1.96043 0H112.188C112.516 0 112.824 0.161381 113.01 0.431718L120.608 11.4317C120.844 11.7738 120.844 12.2262 120.608 12.5683L113.01 23.5683C112.824 23.8386 112.516 24 112.188 24H1.96043C1.14378 24 0.671464 23.0741 1.15089 22.4129L8.27634 12.5871C8.53028 12.2369 8.53028 11.7631 8.27634 11.4129L1.15089 1.58706Z" fill="#4768DA"/>
<path d="M32.9 11.305C33.18 11.305 33.4267 11.2717 33.64 11.205C33.8567 11.135 34.0367 11.0383 34.18 10.915C34.3267 10.7883 34.4367 10.6383 34.51 10.465C34.5833 10.2917 34.62 10.1 34.62 9.89C34.62 9.46333 34.48 9.14167 34.2 8.925C33.92 8.70833 33.5 8.6 32.94 8.6H31.88V11.305H32.9ZM36.21 15H35.35C35.1733 15 35.0433 14.9317 34.96 14.795L33.1 12.235C33.0433 12.155 32.9817 12.0983 32.915 12.065C32.8517 12.0283 32.7517 12.01 32.615 12.01H31.88V15H30.915V7.835H32.94C33.3933 7.835 33.785 7.88167 34.115 7.975C34.445 8.065 34.7167 8.19667 34.93 8.37C35.1467 8.54333 35.3067 8.75333 35.41 9C35.5133 9.24333 35.565 9.51667 35.565 9.82C35.565 10.0733 35.525 10.31 35.445 10.53C35.365 10.75 35.2483 10.9483 35.095 11.125C34.945 11.2983 34.76 11.4467 34.54 11.57C34.3233 11.6933 34.0767 11.7867 33.8 11.85C33.9233 11.92 34.03 12.0217 34.12 12.155L36.21 15ZM40.0423 11.915C40.0423 11.7083 40.0123 11.52 39.9523 11.35C39.8956 11.1767 39.8106 11.0283 39.6973 10.905C39.5873 10.7783 39.4523 10.6817 39.2923 10.615C39.1323 10.545 38.9506 10.51 38.7473 10.51C38.3206 10.51 37.9823 10.635 37.7323 10.885C37.4856 11.1317 37.3323 11.475 37.2723 11.915H40.0423ZM40.7623 14.29C40.6523 14.4233 40.5206 14.54 40.3673 14.64C40.2139 14.7367 40.0489 14.8167 39.8723 14.88C39.6989 14.9433 39.5189 14.99 39.3323 15.02C39.1456 15.0533 38.9606 15.07 38.7773 15.07C38.4273 15.07 38.1039 15.0117 37.8073 14.895C37.5139 14.775 37.2589 14.6017 37.0423 14.375C36.8289 14.145 36.6623 13.8617 36.5423 13.525C36.4223 13.1883 36.3623 12.8017 36.3623 12.365C36.3623 12.0117 36.4156 11.6817 36.5223 11.375C36.6323 11.0683 36.7889 10.8033 36.9923 10.58C37.1956 10.3533 37.4439 10.1767 37.7373 10.05C38.0306 9.92 38.3606 9.855 38.7273 9.855C39.0306 9.855 39.3106 9.90667 39.5673 10.01C39.8273 10.11 40.0506 10.2567 40.2373 10.45C40.4273 10.64 40.5756 10.8767 40.6823 11.16C40.7889 11.44 40.8423 11.76 40.8423 12.12C40.8423 12.26 40.8273 12.3533 40.7973 12.4C40.7673 12.4467 40.7106 12.47 40.6273 12.47H37.2423C37.2523 12.79 37.2956 13.0683 37.3723 13.305C37.4523 13.5417 37.5623 13.74 37.7023 13.9C37.8423 14.0567 38.0089 14.175 38.2023 14.255C38.3956 14.3317 38.6123 14.37 38.8523 14.37C39.0756 14.37 39.2673 14.345 39.4273 14.295C39.5906 14.2417 39.7306 14.185 39.8473 14.125C39.9639 14.065 40.0606 14.01 40.1373 13.96C40.2173 13.9067 40.2856 13.88 40.3423 13.88C40.4156 13.88 40.4723 13.9083 40.5123 13.965L40.7623 14.29ZM45.4605 10.835C45.4338 10.8717 45.4071 10.9 45.3805 10.92C45.3538 10.94 45.3171 10.95 45.2705 10.95C45.2205 10.95 45.1655 10.93 45.1055 10.89C45.0455 10.8467 44.9705 10.8 44.8805 10.75C44.7938 10.7 44.6855 10.655 44.5555 10.615C44.4288 10.5717 44.2721 10.55 44.0855 10.55C43.8355 10.55 43.6155 10.595 43.4255 10.685C43.2355 10.7717 43.0755 10.8983 42.9455 11.065C42.8188 11.2317 42.7221 11.4333 42.6555 11.67C42.5921 11.9067 42.5605 12.1717 42.5605 12.465C42.5605 12.7717 42.5955 13.045 42.6655 13.285C42.7355 13.5217 42.8338 13.7217 42.9605 13.885C43.0905 14.045 43.2455 14.1683 43.4255 14.255C43.6088 14.3383 43.8138 14.38 44.0405 14.38C44.2571 14.38 44.4355 14.355 44.5755 14.305C44.7155 14.2517 44.8305 14.1933 44.9205 14.13C45.0138 14.0667 45.0905 14.01 45.1505 13.96C45.2138 13.9067 45.2755 13.88 45.3355 13.88C45.4088 13.88 45.4655 13.9083 45.5055 13.965L45.7555 14.29C45.6455 14.4267 45.5205 14.5433 45.3805 14.64C45.2405 14.7367 45.0888 14.8183 44.9255 14.885C44.7655 14.9483 44.5971 14.995 44.4205 15.025C44.2438 15.055 44.0638 15.07 43.8805 15.07C43.5638 15.07 43.2688 15.0117 42.9955 14.895C42.7255 14.7783 42.4905 14.61 42.2905 14.39C42.0905 14.1667 41.9338 13.8933 41.8205 13.57C41.7071 13.2467 41.6505 12.8783 41.6505 12.465C41.6505 12.0883 41.7021 11.74 41.8055 11.42C41.9121 11.1 42.0655 10.825 42.2655 10.595C42.4688 10.3617 42.7171 10.18 43.0105 10.05C43.3071 9.92 43.6471 9.855 44.0305 9.855C44.3871 9.855 44.7005 9.91333 44.9705 10.03C45.2438 10.1433 45.4855 10.305 45.6955 10.515L45.4605 10.835ZM48.758 9.855C49.128 9.855 49.4613 9.91667 49.758 10.04C50.0546 10.1633 50.308 10.3383 50.518 10.565C50.728 10.7917 50.888 11.0667 50.998 11.39C51.1113 11.71 51.168 12.0683 51.168 12.465C51.168 12.865 51.1113 13.225 50.998 13.545C50.888 13.865 50.728 14.1383 50.518 14.365C50.308 14.5917 50.0546 14.7667 49.758 14.89C49.4613 15.01 49.128 15.07 48.758 15.07C48.3846 15.07 48.048 15.01 47.748 14.89C47.4513 14.7667 47.198 14.5917 46.988 14.365C46.778 14.1383 46.6163 13.865 46.503 13.545C46.393 13.225 46.338 12.865 46.338 12.465C46.338 12.0683 46.393 11.71 46.503 11.39C46.6163 11.0667 46.778 10.7917 46.988 10.565C47.198 10.3383 47.4513 10.1633 47.748 10.04C48.048 9.91667 48.3846 9.855 48.758 9.855ZM48.758 14.375C49.258 14.375 49.6313 14.2083 49.878 13.875C50.1246 13.5383 50.248 13.07 50.248 12.47C50.248 11.8667 50.1246 11.3967 49.878 11.06C49.6313 10.7233 49.258 10.555 48.758 10.555C48.5046 10.555 48.283 10.5983 48.093 10.685C47.9063 10.7717 47.7496 10.8967 47.623 11.06C47.4996 11.2233 47.4063 11.425 47.343 11.665C47.283 11.9017 47.253 12.17 47.253 12.47C47.253 13.07 47.3763 13.5383 47.623 13.875C47.873 14.2083 48.2513 14.375 48.758 14.375ZM52.2968 15V9.935H52.8318C52.9585 9.935 53.0368 9.99667 53.0668 10.12L53.1318 10.64C53.3185 10.41 53.5285 10.2217 53.7618 10.075C53.9951 9.92833 54.2651 9.855 54.5718 9.855C54.9118 9.855 55.1868 9.95 55.3968 10.14C55.6101 10.33 55.7635 10.5867 55.8568 10.91C55.9301 10.7267 56.0235 10.5683 56.1368 10.435C56.2535 10.3017 56.3835 10.1917 56.5268 10.105C56.6701 10.0183 56.8218 9.955 56.9818 9.915C57.1451 9.875 57.3101 9.855 57.4768 9.855C57.7435 9.855 57.9801 9.89833 58.1868 9.985C58.3968 10.0683 58.5735 10.1917 58.7168 10.355C58.8635 10.5183 58.9751 10.72 59.0518 10.96C59.1285 11.1967 59.1668 11.4683 59.1668 11.775V15H58.2718V11.775C58.2718 11.3783 58.1851 11.0783 58.0118 10.875C57.8385 10.6683 57.5885 10.565 57.2618 10.565C57.1151 10.565 56.9751 10.5917 56.8418 10.645C56.7118 10.695 56.5968 10.77 56.4968 10.87C56.3968 10.97 56.3168 11.0967 56.2568 11.25C56.2001 11.4 56.1718 11.575 56.1718 11.775V15H55.2768V11.775C55.2768 11.3683 55.1951 11.065 55.0318 10.865C54.8685 10.665 54.6301 10.565 54.3168 10.565C54.0968 10.565 53.8935 10.625 53.7068 10.745C53.5201 10.8617 53.3485 11.0217 53.1918 11.225V15H52.2968ZM60.5195 15V9.935H61.0545C61.1811 9.935 61.2595 9.99667 61.2895 10.12L61.3545 10.64C61.5411 10.41 61.7511 10.2217 61.9845 10.075C62.2178 9.92833 62.4878 9.855 62.7945 9.855C63.1345 9.855 63.4095 9.95 63.6195 10.14C63.8328 10.33 63.9861 10.5867 64.0795 10.91C64.1528 10.7267 64.2461 10.5683 64.3595 10.435C64.4761 10.3017 64.6061 10.1917 64.7495 10.105C64.8928 10.0183 65.0445 9.955 65.2045 9.915C65.3678 9.875 65.5328 9.855 65.6995 9.855C65.9661 9.855 66.2028 9.89833 66.4095 9.985C66.6195 10.0683 66.7961 10.1917 66.9395 10.355C67.0861 10.5183 67.1978 10.72 67.2745 10.96C67.3511 11.1967 67.3895 11.4683 67.3895 11.775V15H66.4945V11.775C66.4945 11.3783 66.4078 11.0783 66.2345 10.875C66.0611 10.6683 65.8111 10.565 65.4845 10.565C65.3378 10.565 65.1978 10.5917 65.0645 10.645C64.9345 10.695 64.8195 10.77 64.7195 10.87C64.6195 10.97 64.5395 11.0967 64.4795 11.25C64.4228 11.4 64.3945 11.575 64.3945 11.775V15H63.4995V11.775C63.4995 11.3683 63.4178 11.065 63.2545 10.865C63.0911 10.665 62.8528 10.565 62.5395 10.565C62.3195 10.565 62.1161 10.625 61.9295 10.745C61.7428 10.8617 61.5711 11.0217 61.4145 11.225V15H60.5195ZM72.1321 11.915C72.1321 11.7083 72.1021 11.52 72.0421 11.35C71.9854 11.1767 71.9004 11.0283 71.7871 10.905C71.6771 10.7783 71.5421 10.6817 71.3821 10.615C71.2221 10.545 71.0404 10.51 70.8371 10.51C70.4104 10.51 70.0721 10.635 69.8221 10.885C69.5754 11.1317 69.4221 11.475 69.3621 11.915H72.1321ZM72.8521 14.29C72.7421 14.4233 72.6104 14.54 72.4571 14.64C72.3038 14.7367 72.1388 14.8167 71.9621 14.88C71.7888 14.9433 71.6088 14.99 71.4221 15.02C71.2354 15.0533 71.0504 15.07 70.8671 15.07C70.5171 15.07 70.1938 15.0117 69.8971 14.895C69.6038 14.775 69.3488 14.6017 69.1321 14.375C68.9188 14.145 68.7521 13.8617 68.6321 13.525C68.5121 13.1883 68.4521 12.8017 68.4521 12.365C68.4521 12.0117 68.5054 11.6817 68.6121 11.375C68.7221 11.0683 68.8788 10.8033 69.0821 10.58C69.2854 10.3533 69.5338 10.1767 69.8271 10.05C70.1204 9.92 70.4504 9.855 70.8171 9.855C71.1204 9.855 71.4004 9.90667 71.6571 10.01C71.9171 10.11 72.1404 10.2567 72.3271 10.45C72.5171 10.64 72.6654 10.8767 72.7721 11.16C72.8788 11.44 72.9321 11.76 72.9321 12.12C72.9321 12.26 72.9171 12.3533 72.8871 12.4C72.8571 12.4467 72.8004 12.47 72.7171 12.47H69.3321C69.3421 12.79 69.3854 13.0683 69.4621 13.305C69.5421 13.5417 69.6521 13.74 69.7921 13.9C69.9321 14.0567 70.0988 14.175 70.2921 14.255C70.4854 14.3317 70.7021 14.37 70.9421 14.37C71.1654 14.37 71.3571 14.345 71.5171 14.295C71.6804 14.2417 71.8204 14.185 71.9371 14.125C72.0538 14.065 72.1504 14.01 72.2271 13.96C72.3071 13.9067 72.3754 13.88 72.4321 13.88C72.5054 13.88 72.5621 13.9083 72.6021 13.965L72.8521 14.29ZM74.8653 10.67C74.9753 10.5467 75.092 10.435 75.2153 10.335C75.3386 10.235 75.4686 10.15 75.6053 10.08C75.7453 10.0067 75.892 9.95167 76.0453 9.915C76.202 9.875 76.3703 9.855 76.5503 9.855C76.827 9.855 77.0703 9.90167 77.2803 9.995C77.4936 10.085 77.6703 10.215 77.8103 10.385C77.9536 10.5517 78.062 10.7533 78.1353 10.99C78.2086 11.2267 78.2453 11.4883 78.2453 11.775V15H77.3503V11.775C77.3503 11.3917 77.262 11.095 77.0853 10.885C76.912 10.6717 76.647 10.565 76.2903 10.565C76.027 10.565 75.7803 10.6283 75.5503 10.755C75.3236 10.8817 75.1136 11.0533 74.9203 11.27V15H74.0253V9.935H74.5603C74.687 9.935 74.7653 9.99667 74.7953 10.12L74.8653 10.67ZM82.9015 11.14C82.7348 10.9167 82.5548 10.7617 82.3615 10.675C82.1682 10.585 81.9515 10.54 81.7115 10.54C81.2415 10.54 80.8798 10.7083 80.6265 11.045C80.3732 11.3817 80.2465 11.8617 80.2465 12.485C80.2465 12.815 80.2748 13.0983 80.3315 13.335C80.3882 13.5683 80.4715 13.7617 80.5815 13.915C80.6915 14.065 80.8265 14.175 80.9865 14.245C81.1465 14.315 81.3282 14.35 81.5315 14.35C81.8248 14.35 82.0798 14.2833 82.2965 14.15C82.5165 14.0167 82.7182 13.8283 82.9015 13.585V11.14ZM83.7915 7.635V15H83.2615C83.1348 15 83.0548 14.9383 83.0215 14.815L82.9415 14.2C82.7248 14.46 82.4782 14.67 82.2015 14.83C81.9248 14.99 81.6048 15.07 81.2415 15.07C80.9515 15.07 80.6882 15.015 80.4515 14.905C80.2148 14.7917 80.0132 14.6267 79.8465 14.41C79.6798 14.1933 79.5515 13.9233 79.4615 13.6C79.3715 13.2767 79.3265 12.905 79.3265 12.485C79.3265 12.1117 79.3765 11.765 79.4765 11.445C79.5765 11.1217 79.7198 10.8417 79.9065 10.605C80.0932 10.3683 80.3215 10.1833 80.5915 10.05C80.8648 9.91333 81.1715 9.845 81.5115 9.845C81.8215 9.845 82.0865 9.89833 82.3065 10.005C82.5298 10.1083 82.7282 10.2533 82.9015 10.44V7.635H83.7915ZM88.5872 11.915C88.5872 11.7083 88.5572 11.52 88.4972 11.35C88.4405 11.1767 88.3555 11.0283 88.2422 10.905C88.1322 10.7783 87.9972 10.6817 87.8372 10.615C87.6772 10.545 87.4955 10.51 87.2922 10.51C86.8655 10.51 86.5272 10.635 86.2772 10.885C86.0305 11.1317 85.8772 11.475 85.8172 11.915H88.5872ZM89.3072 14.29C89.1972 14.4233 89.0655 14.54 88.9122 14.64C88.7589 14.7367 88.5939 14.8167 88.4172 14.88C88.2439 14.9433 88.0639 14.99 87.8772 15.02C87.6905 15.0533 87.5055 15.07 87.3222 15.07C86.9722 15.07 86.6489 15.0117 86.3522 14.895C86.0589 14.775 85.8039 14.6017 85.5872 14.375C85.3739 14.145 85.2072 13.8617 85.0872 13.525C84.9672 13.1883 84.9072 12.8017 84.9072 12.365C84.9072 12.0117 84.9605 11.6817 85.0672 11.375C85.1772 11.0683 85.3339 10.8033 85.5372 10.58C85.7405 10.3533 85.9889 10.1767 86.2822 10.05C86.5755 9.92 86.9055 9.855 87.2722 9.855C87.5755 9.855 87.8555 9.90667 88.1122 10.01C88.3722 10.11 88.5955 10.2567 88.7822 10.45C88.9722 10.64 89.1205 10.8767 89.2272 11.16C89.3339 11.44 89.3872 11.76 89.3872 12.12C89.3872 12.26 89.3722 12.3533 89.3422 12.4C89.3122 12.4467 89.2555 12.47 89.1722 12.47H85.7872C85.7972 12.79 85.8405 13.0683 85.9172 13.305C85.9972 13.5417 86.1072 13.74 86.2472 13.9C86.3872 14.0567 86.5539 14.175 86.7472 14.255C86.9405 14.3317 87.1572 14.37 87.3972 14.37C87.6205 14.37 87.8122 14.345 87.9722 14.295C88.1355 14.2417 88.2755 14.185 88.3922 14.125C88.5089 14.065 88.6055 14.01 88.6822 13.96C88.7622 13.9067 88.8305 13.88 88.8872 13.88C88.9605 13.88 89.0172 13.9083 89.0572 13.965L89.3072 14.29ZM93.7804 11.14C93.6137 10.9167 93.4337 10.7617 93.2404 10.675C93.0471 10.585 92.8304 10.54 92.5904 10.54C92.1204 10.54 91.7587 10.7083 91.5054 11.045C91.2521 11.3817 91.1254 11.8617 91.1254 12.485C91.1254 12.815 91.1537 13.0983 91.2104 13.335C91.2671 13.5683 91.3504 13.7617 91.4604 13.915C91.5704 14.065 91.7054 14.175 91.8654 14.245C92.0254 14.315 92.2071 14.35 92.4104 14.35C92.7037 14.35 92.9587 14.2833 93.1754 14.15C93.3954 14.0167 93.5971 13.8283 93.7804 13.585V11.14ZM94.6704 7.635V15H94.1404C94.0137 15 93.9337 14.9383 93.9004 14.815L93.8204 14.2C93.6037 14.46 93.3571 14.67 93.0804 14.83C92.8037 14.99 92.4837 15.07 92.1204 15.07C91.8304 15.07 91.5671 15.015 91.3304 14.905C91.0937 14.7917 90.8921 14.6267 90.7254 14.41C90.5587 14.1933 90.4304 13.9233 90.3404 13.6C90.2504 13.2767 90.2054 12.905 90.2054 12.485C90.2054 12.1117 90.2554 11.765 90.3554 11.445C90.4554 11.1217 90.5987 10.8417 90.7854 10.605C90.9721 10.3683 91.2004 10.1833 91.4704 10.05C91.7437 9.91333 92.0504 9.845 92.3904 9.845C92.7004 9.845 92.9654 9.89833 93.1854 10.005C93.4087 10.1083 93.6071 10.2533 93.7804 10.44V7.635H94.6704Z" fill="white"/>
</svg>
